<?xml version="1.0" encoding="UTF-8" standalone="no"?>
<svg
   xmlns:dc="http://purl.org/dc/elements/1.1/"
   xmlns:cc="http://creativecommons.org/ns#"
   xmlns:rdf="http://www.w3.org/1999/02/22-rdf-syntax-ns#"
   xmlns:svg="http://www.w3.org/2000/svg"
   xmlns="http://www.w3.org/2000/svg"
   id="svg8"
   version="1.1"
   viewBox="0 0 20.580757 6.8691401"
   height="6.8691401mm"
   width="20.580757mm">
  <defs
     id="defs2" />
  <metadata
     id="metadata5">
    <rdf:RDF>
      <cc:Work
         rdf:about="">
        <dc:format>image/svg+xml</dc:format>
        <dc:type
           rdf:resource="http://purl.org/dc/dcmitype/StillImage" />
        <dc:title></dc:title>
      </cc:Work>
    </rdf:RDF>
  </metadata>
  <g
     transform="translate(-14.787109,-62.353516)"
     id="layer1">
    <g
       id="flowRoot815"
       style="font-style:italic;font-variant:normal;font-weight:500;font-stretch:normal;font-size:32px;line-height:1.25;font-family:Z003;-inkscape-font-specification:'Z003, Medium Italic';font-variant-ligatures:normal;font-variant-caps:normal;font-variant-numeric:normal;font-feature-settings:normal;text-align:start;letter-spacing:0px;word-spacing:0px;writing-mode:lr-tb;text-anchor:start;fill:#fdfeff;fill-opacity:1;stroke:none"
       transform="scale(0.26458333)"
       aria-label="oiler">
      <path
         d="m 111.27344,235.7207 c -1.49333,0 -2.65114,0.56046 -4.48047,2.20313 -1.64267,1.456 -2.05372,2.05248 -2.53906,3.39648 -0.29866,0.896 -1.11886,3.92179 -1.49219,5.56446 l -2.6875,11.68359 c -0.0373,0.224 -0.07617,0.44787 -0.07617,0.67187 0,1.15733 0.635093,2.27735 1.232423,2.27735 h 0.22461 0.11133 c 0.224,0.112 1.41981,-0.70785 6.64648,-4.47852 v -0.82226 c -0.784,0.448 -0.78528,0.44903 -2.39062,1.45703 -1.08266,0.672 -1.71629,0.9707 -2.12696,0.9707 -0.37333,0 -0.67187,-0.44803 -0.67187,-0.9707 v -0.33594 -0.33594 c 0,-0.672 1.6792,-7.91568 3.06054,-13.17968 1.456,-5.52533 1.79289,-6.16016 3.43555,-6.16016 0.56,0 0.93213,0.0377 1.82813,0.26172 l 1.60546,-1.97852 c -0.784,-0.18667 -1.15701,-0.22461 -1.67968,-0.22461 z m -13.291018,2.31446 c -1.045334,0.82133 -1.904172,1.4934 -2.576172,1.9414 0.261333,0.784 0.598589,1.41862 1.419922,2.61328 1.045334,-0.93333 1.156448,-1.04495 2.425781,-2.01562 -0.112,-0.224 -0.185709,-0.37405 -0.484375,-0.85938 -0.224,-0.448 -0.261881,-0.44669 -0.560547,-1.19336 z m -11.722656,7.65429 c -1.493333,0 -3.883271,1.08195 -6.085938,2.72461 -2.389333,1.792 -4.068359,5.67488 -4.068359,9.40821 0,2.24 1.26938,3.69531 3.248047,3.69531 1.045333,0 2.128593,-0.37158 3.808593,-1.26758 1.866666,-1.04533 3.097532,-1.97923 3.769532,-2.83789 1.493333,-2.05334 2.6875,-5.71306 2.6875,-8.28906 0,-2.016 -1.380708,-3.4336 -3.359375,-3.4336 z m 10.527343,0 c -0.634667,0 -2.837104,1.23183 -5.898437,3.28516 l -0.07422,1.04492 c 2.277333,-1.232 2.390563,-1.26953 2.726563,-1.26953 0.298667,0 0.447265,0.2241 0.447265,0.63477 0,0.52267 -0.111875,1.04582 -0.671875,3.17382 -1.754666,6.496 -1.755859,6.49613 -1.755859,7.4668 0,0.896 0.336484,1.49219 0.896484,1.49219 0.634666,0 1.642427,-0.48458 3.621094,-1.75391 0.709333,-0.448 1.419572,-0.89552 2.128906,-1.38086 0.336,-0.18666 0.596922,-0.37343 1.044922,-0.63476 l 0.150391,-1.04493 -0.634766,0.33594 c -2.576,1.41867 -3.024656,1.60547 -3.472656,1.60547 -0.410667,0 -0.671875,-0.4122 -0.671875,-1.04687 0,-0.63466 4.22e-4,-0.6345 1.232422,-5.5625 1.381333,-5.67467 1.380859,-5.67399 1.380859,-5.97266 0,-0.224 -0.187886,-0.37305 -0.449219,-0.37305 z m 20.572271,0 c -0.82134,0 -1.38135,0.18655 -2.27735,0.67188 -1.41867,0.82133 -2.68888,1.82861 -3.43555,2.72461 -1.41866,1.71734 -2.6875,5.82365 -2.6875,8.84765 0,2.20267 1.15655,3.58399 3.06055,3.58399 2.20266,0 5.03985,-1.64096 7.83985,-4.51563 l 0.0371,-1.08398 c -2.98667,2.53867 -4.59109,3.47265 -6.00976,3.47265 -0.97066,0 -1.71719,-0.63479 -1.97852,-1.60546 -0.14934,-0.59733 -0.1875,-1.00718 -0.1875,-2.08985 1.71733,-1.08266 2.76414,-1.82998 4.9668,-3.47265 2.05334,-1.53066 2.79883,-2.76336 2.79883,-4.44336 0,-1.30667 -0.78296,-2.08985 -2.12695,-2.08985 z m 10.22851,0 c -0.48533,0 -3.7715,1.60522 -6.04883,2.94922 l -0.11133,1.00781 c 2.16533,-1.04533 2.20217,-1.08203 2.6875,-1.08203 0.48533,0 0.71094,0.26054 0.71094,0.78321 0,0.52266 -0.37426,2.24015 -0.82226,3.88281 l -2.24024,8.17578 2.875,-1.08203 2.80078,-10.64063 c 1.26933,-0.97067 2.12677,-1.30664 3.13477,-1.30664 0.82133,0 1.30651,0.29955 1.97851,1.15821 l 1.1211,-3.54688 c -0.672,-0.224 -1.00948,-0.29883 -1.38281,-0.29883 -0.70933,0 -1.45489,0.33559 -2.4629,1.04493 -0.48533,0.37334 -0.97148,0.74603 -1.49414,1.08203 -0.224,0.18667 -0.48498,0.37409 -0.70898,0.52343 l 0.44922,-2.24023 c 0,-0.224 -0.225,-0.41016 -0.48633,-0.41016 z m -11.79687,1.56836 c 0.59734,0 1.00781,0.59596 1.00781,1.5293 0,1.86666 -1.08218,3.06117 -4.96485,5.5625 0.63467,-4.032 2.31438,-7.0918 3.95704,-7.0918 z m -31.472661,0.18555 c 1.493333,0 2.427735,1.41993 2.427735,3.69726 0,1.60534 -0.523922,3.50857 -1.419922,5.3379 -1.082667,2.128 -2.427037,3.28515 -3.845703,3.28515 -1.530667,0 -2.5,-1.38176 -2.5,-3.50976 0,-4.33066 2.724557,-8.81055 5.33789,-8.81055 z"
         id="path1114"
         style="font-style:italic;font-variant:normal;font-weight:500;font-stretch:normal;font-size:37.33333206px;font-family:Z003;-inkscape-font-specification:'Z003, Medium Italic';font-variant-ligatures:normal;font-variant-caps:normal;font-variant-numeric:normal;font-feature-settings:normal;text-align:start;writing-mode:lr-tb;text-anchor:start;fill:#fdfeff;fill-opacity:1" />
    </g>
    <g
       id="text889"
       style="font-style:italic;font-variant:normal;font-weight:500;font-stretch:normal;font-size:10.58333302px;line-height:1.25;font-family:Z003;-inkscape-font-specification:'Z003, Medium Italic';font-variant-ligatures:normal;font-variant-caps:normal;font-variant-numeric:normal;font-feature-settings:normal;text-align:start;letter-spacing:0px;word-spacing:0px;writing-mode:lr-tb;text-anchor:start;fill:#0c66ff;fill-opacity:0.94117647;stroke:none;stroke-width:0.26458332"
       aria-label="T">
      <path
         d="m 21.634766,62.353516 c -0.433916,0.740833 -0.486188,0.792968 -0.867188,0.792968 -0.105833,0 -0.337931,-0.0089 -0.666016,-0.01953 -1.545165,-0.07408 -1.715521,-0.08594 -2.085937,-0.08594 -1.852084,0 -3.228516,1.006661 -3.228516,2.361328 0,0.34925 0.07512,0.63349 0.265625,1.003906 l 0.792969,-0.517578 c -0.201083,-0.508 -0.242187,-0.678276 -0.242187,-0.97461 0,-0.60325 0.274384,-1.047598 0.792968,-1.291015 0.275166,-0.127 0.63585,-0.179688 1.228516,-0.179688 0.232834,0 0.273839,-1.85e-4 0.951172,0.05273 l -0.857422,3.451172 c -0.381,1.55575 -0.580886,1.818995 -1.480469,1.861328 l -0.371093,0.414062 c 2.550582,0 2.709156,-0.0218 3.566406,-0.498047 l 0.02148,-0.08398 c -0.47625,0.0635 -1.132761,0.105469 -1.714844,0.105469 -0.08467,0 -0.264078,-0.0109 -0.486328,-0.02148 0.814916,-0.687916 1.07985,-1.068713 1.259766,-1.873047 l 0.824219,-3.3125 c 1.375833,0.116417 1.387125,0.115235 1.609375,0.115235 0.497416,0 0.572171,-0.105411 0.826172,-1.142578 z"
         id="path1120"
         style="font-style:italic;font-variant:normal;font-weight:500;font-stretch:normal;font-size:10.58333302px;font-family:Z003;-inkscape-font-specification:'Z003, Medium Italic';font-variant-ligatures:normal;font-variant-caps:normal;font-variant-numeric:normal;font-feature-settings:normal;text-align:start;writing-mode:lr-tb;text-anchor:start;fill:#0c66ff;fill-opacity:0.94117647;stroke-width:0.26458332" />
    </g>
  </g>
</svg>
